<?xml version="1.0" encoding="utf-8"?>
<!-- Generator: Adobe Illustrator 23.1.0, SVG Export Plug-In . SVG Version: 6.00 Build 0)  -->
<svg version="1.1" id="Layer_1" xmlns="http://www.w3.org/2000/svg" xmlns:xlink="http://www.w3.org/1999/xlink" x="0px" y="0px"
	 width="1032.45px" height="348.38px" viewBox="0 0 1032.45 348.38" style="enable-background:new 0 0 1032.45 348.38;"
	 xml:space="preserve">
<style type="text/css">
	.st0{fill:#414142;}
	.st1{fill:#B4B4AA;}
	.st2{fill:#6E6F71;}
</style>
<g>
	<polygon class="st0" points="1006.63,289.69 812.42,238.86 804.49,210.06 1035.28,268.36 1035.3,276.38 	"/>
	<polygon class="st1" points="1008.08,281.03 814.19,232.39 841.5,217.92 1035.33,268.04 	"/>
</g>
<g>
	<polygon class="st0" points="899.04,341.17 710.08,293.74 702.14,264.94 925.88,319.72 925.9,327.73 	"/>
	<polygon class="st1" points="898.68,332.39 711.84,287.27 739.15,272.79 925.93,319.4 	"/>
</g>
<g>
	<path class="st2" d="M31.14,112.53L0,104.98l194-89.31c2.7-1.18,61.03-26.11,117.36-10.62c52.67,14.49,214.17,58.41,177.39,46.86
		l-10.68,19.35c39.37,8.67-119.42-31.36-172.29-45.9c-49.24-13.54-102.58,9.28-103.12,9.51L31.14,112.53z"/>
</g>
<g>
	<path class="st2" d="M301.24,116.3l-31.14-7.55l102.59-46.3c2.7-1.18,61.03-26.11,117.35-10.62
		c52.67,14.49,144.35,37.75,145.27,37.98l-29.95,12.88c-0.92-0.24-68.04-16.01-120.91-30.55c-49.24-13.54-102.58,9.28-103.11,9.51
		L301.24,116.3z"/>
</g>
<g>
	<path class="st2" d="M315.66,348.38l-24.31-9.78c3.19-1.48,335.1-157.14,397.05-186.8c18.86-9.02,24.26-14.24,25.91-16.52
		c-1.81-1.23-5.1-3.19-7.54-3.71l-101.68-29.01c0,0-11.17-8.07-4.47-12.91c6.7-4.84,34.63,0,34.63,0l76.35,21.42
		c3.42,0.72,30.48,6.31,32.29,21.66c1.57,13.29-18.13,24.55-46.39,38.08C635.42,200.53,318.85,346.91,315.66,348.38z"/>
</g>
<polygon class="st2" points="747.66,197.64 748.08,197.43 720.46,157.47 684.03,155.12 716.35,213.3 814.19,232.69 841.5,217.92 "/>
<polygon class="st2" points="645.31,252.52 645.73,252.31 618.11,212.35 581.68,210 614,268.17 711.84,287.57 739.15,272.79 "/>
<polygon class="st2" points="523.67,305.4 524.09,305.19 496.48,265.24 460.04,262.89 492.36,321.06 590.2,340.45 617.51,325.68 "/>
<path class="st2" d="M573.63,85l46.48,1.31l28.46,7.05c0,0,23.72,5.95,8.25,14.65c-15.47,8.7-324.42,153.29-324.42,153.29
	l-29.96-7.53L606.2,114.53c0,0,14.4-4.88,4.83-9.29c-9.57-4.41-35.37-12.58-35.37-12.58L573.63,85z"/>
</svg>
